# xmcd
#
# Track frame offsets:
#	150
#	13633
#	27708
#	41662
#	53852
#	67038
#	81197
#	94090
#	103390
#	117477
#	131938
#	143781
#	158342
#	171133
#	183543
#	196915
#	209034
#	222596
#	235013
#	248885
#	261853
#	273381
#	284808
#	296004
#	307559
#	320834
#
# Disc length: 4447 seconds
#
# Revision: 1
# Processed by: cddbd v1.5.2PL0 Copyright (c) Steve Scherf et al.
# Submitted via: audiograbber 1.83.01
#
DISCID=9d115d1a
DTITLE=TRIO NORDESTINO - ESPECIAL - VOL. 01
DYEAR=1900
DGENRE=FORRÓ
TTITLE0=A CAPITAL DO FORRÓ
TTITLE1=FORRÓ DESARMADO
TTITLE2=ELA BELISCANDO ELE
TTITLE3=ESQUENTA MORENINHA
TTITLE4=PETROLINA, JUAZEIRO
TTITLE5=NA EMENDA
TTITLE6=CHINELO DE ROSINHA
TTITLE7=CHILILIQUE
TTITLE8=MEU PITIGUARI
TTITLE9=NO BALANÓ
TTITLE10=QUEM QUISER AMOR
TTITLE11=FORRÓ PESSADO
TTITLE12=AMOR DOIDO
TTITLE13=ARTE CULINÁRIA
TTITLE14=MENINA APIMENTADA
TTITLE15=POR CAUSA DA PEPITA
TTITLE16=FORRÓ QUENTÃO
TTITLE17=MENINA DE COLO
TTITLE18=FORRÓ NO CLARO
TTITLE19=ALEGRIA E SORRISO
TTITLE20=JOÃO E MARIA
TTITLE21=O CHAMEGO DELA
TTITLE22=Ô BICHO BOM
TTITLE23=HOMEM DE SAIA
TTITLE24=O TREM PEGA
TTITLE25=BEBÊ CHORÃO
EXTD=
EXTT0=
EXTT1=
EXTT2=
EXTT3=
EXTT4=
EXTT5=
EXTT6=
EXTT7=
EXTT8=
EXTT9=
EXTT10=
EXTT11=
EXTT12=
EXTT13=
EXTT14=
EXTT15=
EXTT16=
EXTT17=
EXTT18=
EXTT19=
EXTT20=
EXTT21=
EXTT22=
EXTT23=
EXTT24=
EXTT25=
PLAYORDER=
